<svg width="39" height="38" viewBox="0 0 39 38" fill="none" xmlns="http://www.w3.org/2000/svg">
<path d="M38.4199 21C38.4199 30.9411 28.2499 35 18.1989 35C8.14792 35 0 30.9411 0 21C0 11.0589 5.56077 3 23.2541 3C33.3051 3 38.4199 11.0589 38.4199 21Z" fill="#2F2E41"/>
<path d="M20.3918 11.16C22.1838 11.16 23.5918 11.592 24.6158 12.456C25.6398 13.32 26.1518 14.48 26.1518 15.936C26.1518 17.488 25.6398 18.68 24.6158 19.512C23.5918 20.328 22.1918 20.736 20.4158 20.736L20.0798 20.928H16.6718V27H13.4078V11.16H20.3918ZM20.0078 18.408C20.9358 18.408 21.6238 18.224 22.0718 17.856C22.5358 17.472 22.7678 16.888 22.7678 16.104C22.7678 15.32 22.5358 14.744 22.0718 14.376C21.6238 13.992 20.9358 13.8 20.0078 13.8H16.6718V18.408H20.0078ZM21.9518 19.104L27.0878 27H23.3678L19.1198 20.064L21.9518 19.104Z" fill="#EEEEEE"/>
</svg>
