<svg width="178" height="32" viewBox="0 0 178 32" fill="none" xmlns="http://www.w3.org/2000/svg">
<path d="M38.4199 18C38.4199 27.9411 28.2499 32 18.1989 32C8.14792 32 0 27.9411 0 18C0 8.05887 5.56077 0 23.2541 0C33.3051 0 38.4199 8.05887 38.4199 18Z" fill="#2F2E41"/>
<path d="M20.3918 8.16C22.1838 8.16 23.5918 8.592 24.6158 9.456C25.6398 10.32 26.1518 11.48 26.1518 12.936C26.1518 14.488 25.6398 15.68 24.6158 16.512C23.5918 17.328 22.1918 17.736 20.4158 17.736L20.0798 17.928H16.6718V24H13.4078V8.16H20.3918ZM20.0078 15.408C20.9358 15.408 21.6238 15.224 22.0718 14.856C22.5358 14.472 22.7678 13.888 22.7678 13.104C22.7678 12.32 22.5358 11.744 22.0718 11.376C21.6238 10.992 20.9358 10.8 20.0078 10.8H16.6718V15.408H20.0078ZM21.9518 16.104L27.0878 24H23.3678L19.1198 17.064L21.9518 16.104Z" fill="#EEEEEE"/>
<path d="M59.048 8.16C60.84 8.16 62.248 8.592 63.272 9.456C64.296 10.32 64.808 11.48 64.808 12.936C64.808 14.488 64.296 15.68 63.272 16.512C62.248 17.328 60.848 17.736 59.072 17.736L58.736 17.928H55.328V24H52.064V8.16H59.048ZM58.664 15.408C59.592 15.408 60.28 15.224 60.728 14.856C61.192 14.472 61.424 13.888 61.424 13.104C61.424 12.32 61.192 11.744 60.728 11.376C60.28 10.992 59.592 10.8 58.664 10.8H55.328V15.408H58.664ZM60.608 16.104L65.744 24H62.024L57.776 17.064L60.608 16.104ZM73.3741 24.24C72.1101 24.24 71.0061 23.992 70.0621 23.496C69.1341 23 68.4141 22.288 67.9021 21.36C67.3901 20.432 67.1341 19.312 67.1341 18C67.1341 16.688 67.3901 15.568 67.9021 14.64C68.4141 13.712 69.1261 13 70.0381 12.504C70.9661 12.008 72.0221 11.76 73.2061 11.76C74.4221 11.76 75.4541 12.008 76.3021 12.504C77.1501 12.984 77.7981 13.648 78.2461 14.496C78.6941 15.328 78.9181 16.28 78.9181 17.352C78.9181 17.672 78.9101 17.976 78.8941 18.264C78.8781 18.552 78.8541 18.808 78.8221 19.032H69.2461V16.752H77.3821L75.7981 17.328C75.7981 16.32 75.5661 15.544 75.1021 15C74.6541 14.456 74.0141 14.184 73.1821 14.184C72.5741 14.184 72.0461 14.328 71.5981 14.616C71.1661 14.904 70.8381 15.336 70.6141 15.912C70.3901 16.472 70.2781 17.184 70.2781 18.048C70.2781 18.896 70.3981 19.6 70.6381 20.16C70.8941 20.704 71.2461 21.112 71.6941 21.384C72.1581 21.656 72.7101 21.792 73.3501 21.792C74.0541 21.792 74.6221 21.656 75.0541 21.384C75.4861 21.112 75.8221 20.736 76.0621 20.256L78.6781 21.264C78.4221 21.888 78.0301 22.424 77.5021 22.872C76.9901 23.32 76.3741 23.664 75.6541 23.904C74.9501 24.128 74.1901 24.24 73.3741 24.24ZM86.5046 24.24C85.2886 24.24 84.1766 24.024 83.1686 23.592C82.1766 23.16 81.3686 22.552 80.7446 21.768L82.6406 19.848C83.0246 20.424 83.5366 20.896 84.1766 21.264C84.8166 21.632 85.5766 21.816 86.4566 21.816C87.0806 21.816 87.5766 21.728 87.9446 21.552C88.3286 21.36 88.5206 21.064 88.5206 20.664C88.5206 20.408 88.4326 20.192 88.2566 20.016C88.0806 19.824 87.7286 19.672 87.2006 19.56L85.0886 19.128C83.6966 18.84 82.7046 18.408 82.1126 17.832C81.5366 17.24 81.2486 16.48 81.2486 15.552C81.2486 14.896 81.4406 14.28 81.8246 13.704C82.2246 13.128 82.8166 12.664 83.6006 12.312C84.3846 11.944 85.3606 11.76 86.5286 11.76C87.7286 11.76 88.7686 11.952 89.6486 12.336C90.5446 12.704 91.2486 13.256 91.7606 13.992L89.7926 15.912C89.4406 15.352 88.9766 14.928 88.4006 14.64C87.8406 14.336 87.2486 14.184 86.6246 14.184C86.1766 14.184 85.7926 14.232 85.4726 14.328C85.1526 14.424 84.9126 14.56 84.7526 14.736C84.5926 14.896 84.5126 15.104 84.5126 15.36C84.5126 15.616 84.6246 15.84 84.8486 16.032C85.0726 16.208 85.4806 16.36 86.0726 16.488L88.5206 16.992C89.7046 17.232 90.5526 17.64 91.0646 18.216C91.5766 18.776 91.8326 19.456 91.8326 20.256C91.8326 21.024 91.6246 21.712 91.2086 22.32C90.8086 22.912 90.2086 23.384 89.4086 23.736C88.6246 24.072 87.6566 24.24 86.5046 24.24ZM99.8797 11.76C101.096 11.76 102.16 12.008 103.072 12.504C104 13 104.72 13.712 105.232 14.64C105.76 15.568 106.024 16.688 106.024 18C106.024 19.296 105.76 20.416 105.232 21.36C104.72 22.288 104 23 103.072 23.496C102.16 23.992 101.096 24.24 99.8797 24.24C98.6797 24.24 97.6157 23.992 96.6877 23.496C95.7597 23 95.0317 22.288 94.5037 21.36C93.9917 20.416 93.7357 19.296 93.7357 18C93.7357 16.688 93.9917 15.568 94.5037 14.64C95.0317 13.712 95.7597 13 96.6877 12.504C97.6157 12.008 98.6797 11.76 99.8797 11.76ZM99.8797 14.208C99.2717 14.208 98.7517 14.352 98.3197 14.64C97.9037 14.912 97.5837 15.328 97.3597 15.888C97.1357 16.448 97.0237 17.152 97.0237 18C97.0237 18.848 97.1357 19.552 97.3597 20.112C97.5837 20.672 97.9037 21.096 98.3197 21.384C98.7517 21.656 99.2717 21.792 99.8797 21.792C100.472 21.792 100.976 21.656 101.392 21.384C101.824 21.096 102.152 20.672 102.376 20.112C102.6 19.552 102.712 18.848 102.712 18C102.712 17.152 102.6 16.448 102.376 15.888C102.152 15.328 101.824 14.912 101.392 14.64C100.976 14.352 100.472 14.208 99.8797 14.208ZM108.775 24V12H111.727L111.919 15.6L111.511 15.216C111.703 14.432 112.007 13.784 112.423 13.272C112.839 12.76 113.343 12.384 113.935 12.144C114.543 11.888 115.207 11.76 115.927 11.76C116.759 11.76 117.495 11.92 118.135 12.24C118.791 12.56 119.303 13.048 119.671 13.704C120.055 14.344 120.247 15.152 120.247 16.128V24H116.959V17.064C116.959 16.04 116.759 15.336 116.359 14.952C115.959 14.552 115.439 14.352 114.799 14.352C114.351 14.352 113.911 14.464 113.479 14.688C113.063 14.896 112.719 15.24 112.447 15.72C112.191 16.2 112.063 16.84 112.063 17.64V24H108.775ZM130.474 16.344C130.474 15.656 130.274 15.12 129.874 14.736C129.49 14.352 128.978 14.16 128.338 14.16C127.746 14.16 127.226 14.312 126.778 14.616C126.33 14.92 126.002 15.424 125.794 16.128L122.986 15.264C123.258 14.208 123.85 13.36 124.762 12.72C125.69 12.08 126.93 11.76 128.482 11.76C129.538 11.76 130.458 11.928 131.242 12.264C132.026 12.584 132.634 13.072 133.066 13.728C133.514 14.384 133.738 15.208 133.738 16.2V21.072C133.738 21.68 134.026 21.984 134.602 21.984C134.874 21.984 135.13 21.944 135.37 21.864L135.178 23.904C134.762 24.112 134.242 24.216 133.618 24.216C133.058 24.216 132.554 24.12 132.106 23.928C131.658 23.736 131.306 23.448 131.05 23.064C130.794 22.664 130.666 22.168 130.666 21.576V21.48L131.242 21.384C131.146 21.992 130.882 22.512 130.45 22.944C130.018 23.36 129.49 23.68 128.866 23.904C128.258 24.128 127.626 24.24 126.97 24.24C126.154 24.24 125.45 24.12 124.858 23.88C124.266 23.624 123.81 23.256 123.49 22.776C123.17 22.296 123.01 21.704 123.01 21C123.01 20.104 123.298 19.376 123.874 18.816C124.45 18.24 125.274 17.848 126.346 17.64L130.858 16.728L130.834 18.768L127.954 19.344C127.41 19.456 126.994 19.608 126.706 19.8C126.434 19.976 126.298 20.272 126.298 20.688C126.298 21.088 126.442 21.392 126.73 21.6C127.034 21.808 127.394 21.912 127.81 21.912C128.146 21.912 128.474 21.872 128.794 21.792C129.114 21.712 129.402 21.584 129.658 21.408C129.914 21.232 130.114 20.992 130.258 20.688C130.402 20.384 130.474 20.016 130.474 19.584V16.344ZM137.416 24V12H140.368L140.56 15.6L140.152 15.216C140.344 14.432 140.648 13.784 141.064 13.272C141.48 12.76 141.984 12.384 142.576 12.144C143.184 11.888 143.848 11.76 144.568 11.76C145.4 11.76 146.136 11.92 146.776 12.24C147.432 12.56 147.944 13.048 148.312 13.704C148.696 14.344 148.888 15.152 148.888 16.128V24H145.6V17.064C145.6 16.04 145.4 15.336 145 14.952C144.6 14.552 144.08 14.352 143.44 14.352C142.992 14.352 142.552 14.464 142.12 14.688C141.704 14.896 141.36 15.24 141.088 15.72C140.832 16.2 140.704 16.84 140.704 17.64V24H137.416ZM157.723 11.76C158.795 11.76 159.699 11.92 160.435 12.24C161.187 12.544 161.787 12.968 162.235 13.512C162.699 14.04 163.027 14.632 163.219 15.288L160.147 16.392C159.987 15.672 159.715 15.128 159.331 14.76C158.947 14.392 158.427 14.208 157.771 14.208C157.163 14.208 156.643 14.352 156.211 14.64C155.779 14.912 155.451 15.336 155.227 15.912C155.003 16.472 154.891 17.176 154.891 18.024C154.891 18.872 155.003 19.576 155.227 20.136C155.467 20.696 155.803 21.112 156.235 21.384C156.683 21.656 157.203 21.792 157.795 21.792C158.275 21.792 158.683 21.712 159.019 21.552C159.355 21.376 159.627 21.128 159.835 20.808C160.059 20.488 160.211 20.104 160.291 19.656L163.267 20.616C163.091 21.336 162.763 21.968 162.283 22.512C161.803 23.056 161.187 23.48 160.435 23.784C159.683 24.088 158.811 24.24 157.819 24.24C156.587 24.24 155.499 23.992 154.555 23.496C153.611 23 152.883 22.288 152.371 21.36C151.859 20.432 151.603 19.312 151.603 18C151.603 16.688 151.859 15.568 152.371 14.64C152.883 13.712 153.603 13 154.531 12.504C155.459 12.008 156.523 11.76 157.723 11.76ZM171.39 24.24C170.126 24.24 169.022 23.992 168.078 23.496C167.15 23 166.43 22.288 165.918 21.36C165.406 20.432 165.15 19.312 165.15 18C165.15 16.688 165.406 15.568 165.918 14.64C166.43 13.712 167.142 13 168.054 12.504C168.982 12.008 170.038 11.76 171.222 11.76C172.438 11.76 173.47 12.008 174.318 12.504C175.166 12.984 175.814 13.648 176.262 14.496C176.71 15.328 176.934 16.28 176.934 17.352C176.934 17.672 176.926 17.976 176.91 18.264C176.894 18.552 176.87 18.808 176.838 19.032H167.262V16.752H175.398L173.814 17.328C173.814 16.32 173.582 15.544 173.118 15C172.67 14.456 172.03 14.184 171.198 14.184C170.59 14.184 170.062 14.328 169.614 14.616C169.182 14.904 168.854 15.336 168.63 15.912C168.406 16.472 168.294 17.184 168.294 18.048C168.294 18.896 168.414 19.6 168.654 20.16C168.91 20.704 169.262 21.112 169.71 21.384C170.174 21.656 170.726 21.792 171.366 21.792C172.07 21.792 172.638 21.656 173.07 21.384C173.502 21.112 173.838 20.736 174.078 20.256L176.694 21.264C176.438 21.888 176.046 22.424 175.518 22.872C175.006 23.32 174.39 23.664 173.67 23.904C172.966 24.128 172.206 24.24 171.39 24.24Z" fill="#111111" fill-opacity="0.9"/>
</svg>
